<svg xmlns="http://www.w3.org/2000/svg" width="37" height="37" viewBox="0 0 37 37" fill="none">
<path fill-rule="evenodd" clip-rule="evenodd" d="M18.4445 3.46875H18.5555C19.9492 3.46875 21.073 3.46875 21.9811 3.55046C22.9153 3.63525 23.7324 3.81563 24.474 4.24421C25.3529 4.75128 26.0829 5.48077 26.5907 6.35938C27.0192 7.10092 27.1981 7.918 27.2829 8.85225C27.3646 9.76029 27.3646 10.8842 27.3646 12.2778V17.5303C28.1262 17.6906 28.8153 18.0067 29.3718 18.6403C30.0579 19.4265 30.2814 20.407 30.3754 21.4862L30.3816 21.5587C30.4356 22.1908 30.488 22.7874 30.4541 23.2869C30.4155 23.8588 30.2598 24.4431 29.7958 24.9488C29.3179 25.473 28.7135 25.6657 28.1369 25.7489C27.9026 25.7828 27.6436 25.8013 27.3661 25.8106V32.375C27.3661 32.6817 27.2443 32.9758 27.0275 33.1926C26.8106 33.4094 26.5165 33.5312 26.2099 33.5312C25.9032 33.5312 25.6091 33.4094 25.3923 33.1926C25.1754 32.9758 25.0536 32.6817 25.0536 32.375V25.8229H11.9495V32.375C11.9495 32.6817 11.8276 32.9758 11.6108 33.1926C11.394 33.4094 11.0999 33.5312 10.7932 33.5312C10.4865 33.5312 10.1924 33.4094 9.97561 33.1926C9.75877 32.9758 9.63695 32.6817 9.63695 32.375V25.8106C9.37808 25.8035 9.11976 25.7829 8.86303 25.7489C8.28645 25.6657 7.68366 25.4714 7.2042 24.9488C6.74016 24.4431 6.58445 23.8588 6.54591 23.2869C6.51199 22.7874 6.56441 22.1892 6.61837 21.5602L6.62453 21.4862C6.71703 20.407 6.94212 19.4265 7.62816 18.6418C8.1847 18.0067 8.87383 17.6906 9.63541 17.5303V12.2778C9.63541 10.8842 9.63541 9.76029 9.71712 8.85225C9.80191 7.918 9.98228 7.10092 10.4109 6.35938C10.9179 5.4804 11.6474 4.75038 12.526 4.24267C13.2676 3.81563 14.0847 3.63525 15.0189 3.55046C15.9269 3.46875 17.0508 3.46875 18.4445 3.46875ZM13.0178 17.3438H11.9479V12.3333C11.9479 10.8718 11.9479 9.85125 12.0204 9.06192C12.0913 8.28646 12.2208 7.84708 12.4135 7.51562C12.7176 6.98817 13.1552 6.55005 13.6823 6.24529C14.0137 6.05413 14.4531 5.92462 15.2286 5.85371C16.0179 5.78279 17.0385 5.78125 18.5 5.78125C19.9615 5.78125 20.9821 5.78125 21.7714 5.85371C22.5469 5.92462 22.9862 6.05413 23.3177 6.24529C23.8449 6.55054 24.2828 6.98837 24.588 7.51562C24.7792 7.84708 24.9087 8.28646 24.9796 9.06192C25.0505 9.85125 25.0521 10.8718 25.0521 12.3333V17.3438H13.0178ZM13.1042 19.6562C11.7953 19.6562 10.9458 19.6593 10.3199 19.7565C9.74332 19.8443 9.52287 19.9877 9.3687 20.165C9.17445 20.387 9.00795 20.757 8.92932 21.6835C8.86612 22.4143 8.83374 22.8321 8.85224 23.1327C8.85466 23.208 8.8671 23.2827 8.88924 23.3547C8.89541 23.3701 8.89849 23.3747 8.90774 23.3855L8.90928 23.3871L8.91391 23.3902C9.00231 23.4257 9.09516 23.4491 9.18987 23.4595C9.52595 23.5073 9.9977 23.5104 10.7932 23.5104H26.2099C27.0023 23.5104 27.474 23.5073 27.8101 23.4595C27.9048 23.4491 27.9977 23.4257 28.0861 23.3902L28.0907 23.3886L28.0922 23.3855C28.1008 23.3769 28.1072 23.3664 28.1107 23.3547C28.1323 23.2826 28.1443 23.208 28.1462 23.1327C28.1662 22.8321 28.1339 22.4143 28.0707 21.6835C27.992 20.7585 27.8255 20.387 27.6313 20.165C27.4771 19.9893 27.2567 19.8443 26.6801 19.7565C26.0542 19.6593 25.2047 19.6562 23.8958 19.6562H13.1042Z" fill="#00443A"/>
</svg>