<svg xmlns="http://www.w3.org/2000/svg" width="37" height="37" viewBox="0 0 37 37" fill="none">
<path d="M3.46875 32.375H33.5312M5.78125 4.625V32.375M21.9687 4.625V32.375M31.2187 11.5625V32.375M10.4062 10.4062H11.5625M10.4062 15.0312H11.5625M10.4062 19.6562H11.5625M16.1875 10.4062H17.3437M16.1875 15.0312H17.3437M16.1875 19.6562H17.3437M10.4062 32.375V27.1719C10.4062 26.2145 11.1832 25.4375 12.1406 25.4375H15.6094C16.5667 25.4375 17.3437 26.2145 17.3437 27.1719V32.375M4.625 4.625H23.125M21.9687 11.5625H32.375M26.5937 17.3437H26.6061V17.3561H26.5937V17.3437ZM26.5937 21.9687H26.6061V21.9811H26.5937V21.9687ZM26.5937 26.5937H26.6061V26.6061H26.5937V26.5937Z" stroke="#00443A" stroke-width="1.5" stroke-linecap="round" stroke-linejoin="round"/>
</svg>