<svg xmlns="http://www.w3.org/2000/svg" width="37" height="37" viewBox="0 0 37 37" fill="none">
  <path d="M11.5625 27.7498V30.8332M25.4375 27.7498V30.8332M7.4 15.176C6.0125 15.2068 4.625 15.8343 4.625 16.9582V23.1248C4.625 25.6794 6.48887 27.7498 8.7875 27.7498H28.2125C30.5111 27.7498 32.375 25.6794 32.375 23.1248V16.9582C32.375 15.7063 30.9875 15.1452 29.6 15.176M7.4 15.176C8.7875 15.1452 10.175 15.7063 10.175 16.9582C10.175 19.0595 10.5219 21.5832 13.2583 21.5832H23.7417C26.4781 21.5832 26.825 19.0595 26.825 16.9582C26.825 15.8328 28.2125 15.2084 29.6 15.176M7.4 15.176V10.7915C7.4 8.23696 9.26387 6.1665 11.5625 6.1665H25.4375C27.7361 6.1665 29.6 8.23696 29.6 10.7915V15.176" stroke="#00443A" stroke-width="1.5" stroke-linecap="round" stroke-linejoin="round"/>
</svg>