<svg xmlns="http://www.w3.org/2000/svg" width="37" height="37" viewBox="0 0 37 37" fill="none">
<path d="M33.9173 11.5623C33.9173 8.58692 27.0107 6.1665 18.5007 6.1665C9.99065 6.1665 3.08398 8.58692 3.08398 11.5623C3.08398 14.3528 9.17357 16.6653 16.959 16.9273V23.1248H14.4152C13.1511 23.1248 12.0257 23.8957 11.5477 25.0673L9.25065 30.8332H12.334L14.184 26.2082H22.8173L24.6673 30.8332H27.7507L25.4382 25.0673C24.9757 23.8957 23.8348 23.1248 22.5861 23.1248H20.0423V16.9273C27.8277 16.6653 33.9173 14.3528 33.9173 11.5623ZM18.5007 9.24984C24.7444 9.24984 28.8915 10.5757 30.4023 11.5623C28.8915 12.549 24.7444 13.8748 18.5007 13.8748C12.2569 13.8748 8.10982 12.549 6.59898 11.5623C8.10982 10.5757 12.2569 9.24984 18.5007 9.24984Z" fill="#00443A"/>
</svg>