<svg xmlns="http://www.w3.org/2000/svg" width="37" height="37" viewBox="0 0 37 37" fill="none">
<g clip-path="url(#clip0_808_27557)">
<path d="M27.7493 3.0835C28.5272 3.08325 29.2765 3.37704 29.8469 3.90597C30.4172 4.4349 30.7666 5.15988 30.825 5.93558L30.8327 6.16683V30.8335C30.8329 31.6114 30.5391 32.3606 30.0102 32.931C29.4813 33.5014 28.7563 33.8508 27.9806 33.9091L27.7493 33.9168H9.24935C8.47146 33.9171 7.72223 33.6233 7.15184 33.0944C6.58145 32.5654 6.23207 31.8404 6.17372 31.0647L6.16602 30.8335V6.16683C6.16577 5.38894 6.45956 4.63971 6.98849 4.06932C7.51742 3.49893 8.2424 3.14955 9.0181 3.0912L9.24935 3.0835H27.7493ZM16.9577 6.16683H9.24935V30.8335H16.9577V6.16683ZM27.7493 6.16683H20.041V30.8335H27.7493V6.16683ZM13.8743 16.9585C14.2673 16.9589 14.6452 17.1094 14.931 17.3791C15.2167 17.6489 15.3886 18.0175 15.4117 18.4098C15.4347 18.8021 15.3071 19.1883 15.0549 19.4897C14.8027 19.791 14.4449 19.9846 14.0547 20.031L13.8743 20.0418H12.3327C11.9397 20.0414 11.5618 19.8909 11.2761 19.6212C10.9903 19.3514 10.8184 18.9828 10.7954 18.5905C10.7723 18.1982 10.9 17.812 11.1522 17.5107C11.4044 17.2093 11.7621 17.0157 12.1523 16.9693L12.3327 16.9585H13.8743ZM24.666 16.9585C25.0749 16.9585 25.467 17.1209 25.7561 17.41C26.0453 17.6992 26.2077 18.0913 26.2077 18.5002C26.2077 18.909 26.0453 19.3012 25.7561 19.5903C25.467 19.8794 25.0749 20.0418 24.666 20.0418H23.1243C22.7155 20.0418 22.3233 19.8794 22.0342 19.5903C21.7451 19.3012 21.5827 18.909 21.5827 18.5002C21.5827 18.0913 21.7451 17.6992 22.0342 17.41C22.3233 17.1209 22.7155 16.9585 23.1243 16.9585H24.666Z" fill="#00443A"/>
</g>
<defs>
<clipPath id="clip0_808_27557">
<rect width="37" height="37" fill="white"/>
</clipPath>
</defs>
</svg>